<?xml version="1.0" encoding="UTF-8" standalone="no"?>
<!-- Created with Inkscape (http://www.inkscape.org/) -->

<!-- 
How to convert logo to apng:
1. Open svg file in editor (for example Inkscape)
2. Convert it to the first png (name it temp1.png)
3. Hide rectangle
4. Convert it to the second png (name it temp2.png)
5. Merge both pngs to apng and set frame delay to 500ms
You can use tool apngasm like this: 
apngasm logo.png temp*.png 1 2
-->

<svg
   width="333.00128"
   height="150"
   viewBox="0 0 333.00128 150"
   version="1.1"
   id="svg5"
   sodipodi:docname="logo.svg"
   inkscape:version="1.2.2 (b0a8486541, 2022-12-01)"
   inkscape:export-filename="temp1.png"
   inkscape:export-xdpi="96"
   inkscape:export-ydpi="96"
   xmlns:inkscape="http://www.inkscape.org/namespaces/inkscape"
   xmlns:sodipodi="http://sodipodi.sourceforge.net/DTD/sodipodi-0.dtd"
   xmlns="http://www.w3.org/2000/svg"
   xmlns:svg="http://www.w3.org/2000/svg">
  <sodipodi:namedview
     id="namedview7"
     pagecolor="#ffffff"
     bordercolor="#000000"
     borderopacity="0.25"
     inkscape:showpageshadow="2"
     inkscape:pageopacity="0.0"
     inkscape:pagecheckerboard="true"
     inkscape:deskcolor="#d1d1d1"
     inkscape:document-units="px"
     showgrid="false"
     inkscape:zoom="3.1171875"
     inkscape:cx="253.27318"
     inkscape:cy="111.6391"
     inkscape:window-width="1920"
     inkscape:window-height="1007"
     inkscape:window-x="0"
     inkscape:window-y="0"
     inkscape:window-maximized="1"
     inkscape:current-layer="text227" />
  <defs
     id="defs2" />
  <g
     inkscape:label="Vrstva 1"
     inkscape:groupmode="layer"
     id="layer1"
     transform="scale(0.29296875)">
    <g
       aria-label="CLI   C    GAMES"
       id="text227"
       style="font-size:145.636px;line-height:1;font-family:OCRABold;-inkscape-font-specification:OCRABold;stroke-width:25.6;stroke-linecap:round;stroke-linejoin:round"
       transform="translate(28.368784,1.1989669e-5)">
      <g
         id="g379"
         style="stroke:#ffffff;stroke-opacity:1;stroke-width:3.41333333;stroke-dasharray:none">
        <path
           d="m 528.45965,53.840668 q 1.45636,-0.291272 12.5247,-0.291272 1.89327,0 2.91272,0 1.74763,0 3.49526,0 1.74764,0 2.91272,0 1.16509,0 2.33018,0 1.16509,0 1.89327,0 0.72818,0 1.31072,0 0.72818,0 1.16509,0 0.43691,0 0.72818,0.145636 0.43691,0 0.58255,0 0.29127,0 0.58254,0 1.74763,0.436908 3.20399,1.310724 1.45636,0.873816 2.47581,2.18454 1.16509,1.310724 1.74764,2.91272 0.58254,1.601996 0.58254,3.349628 0,6.699257 -5.97108,9.175069 -1.45636,0.582544 -3.34962,0.72818 -1.74764,0 -13.25288,0 -3.20399,0 -5.53417,0 -2.18454,0 -3.78654,0 -1.45636,0 -2.47581,0.145636 -0.87381,0 -1.45636,0 -0.43691,0 -0.72818,0 -1.31072,0.436908 -2.0389,1.310724 -0.58255,0.873816 -4.22345,8.155616 -3.34962,6.699256 -6.99052,13.981056 -3.49527,7.281795 -3.93218,8.009975 -0.14563,0.29128 -0.29127,0.87382 -0.14563,0.58254 -0.29127,1.16509 -0.14564,0.58254 -0.14564,1.01945 -0.14563,0.72818 -0.14563,2.47581 0,1.602 0.14563,2.18454 0,0.58255 0.29128,1.74764 0.29127,1.01945 0.4369,1.45636 1.16509,2.33017 10.9227,21.99103 3.6409,7.13617 4.22345,8.00998 0.29127,0.29127 0.58254,0.58255 0.29127,0.14563 0.72818,0.4369 0.43691,0.29128 0.72818,0.29128 1.01945,0.14563 13.98106,0.14563 1.16509,0 3.34963,0 8.59252,0 10.19452,0.14564 1.60199,0.14563 2.91272,0.58254 h 0.14563 q 2.76709,1.16509 4.36908,3.78654 1.602,2.47581 1.602,5.38853 0,3.6409 -2.33018,6.40798 -2.18454,2.62145 -5.6798,3.34963 -0.72818,0.14564 -5.2429,0.14564 -4.51471,0.14563 -9.75761,0.14563 -5.09726,0 -9.61198,-0.14563 -4.51471,0 -5.38853,-0.14564 -5.53417,-0.58254 -10.19452,-3.49526 -4.66035,-3.05836 -7.57307,-7.71871 -0.14564,-0.29127 -0.72818,-1.45636 -0.58254,-1.16509 -1.602,-2.91272 -0.87381,-1.89327 -2.0389,-4.07781 -1.16509,-2.33017 -2.47581,-4.80599 -1.16509,-2.47581 -2.47581,-4.95162 -1.16509,-2.62145 -2.33018,-4.80599 -1.16509,-2.33017 -2.0389,-4.22344 -0.87382,-1.89327 -1.45636,-3.05836 -0.58255,-1.31072 -0.72818,-1.60199 -1.01946,-2.18454 -1.74764,-4.51472 -0.58254,-2.47581 -0.87381,-4.95162 -0.43691,-4.07781 0,-8.00999 0.72818,-5.09726 2.62145,-9.611971 l 15.87432,-31.894285 q 6.11671,-9.611976 17.33068,-11.068336 z"
           id="path337"
           style="stroke:#ffffff;stroke-opacity:1;stroke-width:3.41333333;stroke-dasharray:none" />
        <path
           d="m 604.6273,53.840668 q 2.18454,-0.436908 4.36908,0 2.03891,0.582544 3.6409,2.038904 2.47582,1.893268 3.34963,4.951624 0.43691,1.310724 0.43691,15.146145 -0.14564,16.165596 -0.14564,30.292289 v 41.06935 h 21.4085 q 24.46684,0 25.34066,0.14564 3.49526,0.72818 5.6798,3.49526 2.33018,2.76709 2.33018,6.40799 0,3.49526 -2.33018,6.26234 -2.18454,2.62145 -5.6798,3.34963 -0.87382,0.14564 -32.33119,0.14564 h -31.16611 -2.91272 v -2.91272 -50.68133 q 0,-14.854873 -0.14563,-32.913737 0,-14.126692 0,-16.602505 0.14563,-2.621448 0.72818,-3.932172 0.72818,-2.038904 2.33017,-3.495264 2.18454,-2.18454 5.09726,-2.767084 z"
           id="path339"
           style="stroke:#ffffff;stroke-opacity:1;stroke-width:3.41333333;stroke-dasharray:none" />
        <path
           d="m 709.04834,53.695032 q 0.58254,-0.145636 28.83592,-0.145636 28.39902,0 29.27284,0.145636 1.74763,0.436908 3.20399,1.310724 1.45636,0.873816 2.47581,2.18454 1.16509,1.310724 1.74764,2.91272 0.58254,1.601996 0.58254,3.349628 0,3.640901 -2.33018,6.407985 -2.18454,2.621448 -5.6798,3.349628 -0.87382,0.145636 -11.65088,0.145636 h -7.71871 v 36.991547 36.99154 h 7.71871 q 8.73816,0 10.34016,0.14564 1.60199,0 3.05835,0.58254 1.16509,0.43691 2.18454,1.16509 1.01945,0.72818 1.74763,1.74763 0.87382,1.01945 1.45636,2.18454 0.29128,0.58255 0.43691,1.31073 0.29127,0.58254 0.43691,1.16508 0.58254,3.93218 -1.89327,7.42744 -2.33017,3.34963 -6.40798,3.93217 -0.87382,0.14564 -29.27284,0.14564 h -28.25338 -0.43691 l -0.43691,-0.14564 -0.58254,-0.29127 q -3.20399,-0.87382 -5.2429,-3.49526 -1.89327,-2.62145 -1.89327,-5.97108 0,-3.34963 1.89327,-5.82544 2.03891,-2.62145 5.2429,-3.6409 l 0.58254,-0.29127 h 0.43691 0.43691 l 10.77706,-0.14564 h 8.00998 V 110.34744 73.355893 h -8.00998 -10.77706 -0.43691 l -0.43691,-0.145636 -0.58254,-0.291272 q -1.01945,-0.291272 -2.03891,-0.72818 -0.87381,-0.582544 -1.74763,-1.165088 -0.72818,-0.72818 -1.45636,-1.601996 -0.58254,-0.873816 -1.01945,-1.893268 -1.89327,-4.077809 0,-8.155617 0.58254,-1.45636 1.74763,-2.621448 1.16509,-1.165088 2.47581,-1.893268 1.45636,-0.873816 3.204,-1.165088 z"
           id="path341"
           style="stroke:#ffffff;stroke-opacity:1;stroke-width:3.41333333;stroke-dasharray:none" />
      </g>
      <g
         id="g374"
         transform="translate(-47.786666)"
         style="stroke:#ffffff;stroke-opacity:1;stroke-width:3.41333333;stroke-dasharray:none">
        <path
           d="m 632.58942,199.47667 q 1.45636,-0.29127 12.52469,-0.29127 1.89327,0 2.91272,0 1.74763,0 3.49527,0 1.74763,0 2.91272,0 1.16508,0 2.33017,0 1.16509,0 1.89327,0 0.72818,0 1.31072,0 0.72818,0 1.16509,0 0.43691,0 0.72818,0.14563 0.43691,0 0.58255,0 0.29127,0 0.58254,0 1.74763,0.43691 3.20399,1.31073 1.45636,0.87381 2.47581,2.18454 1.16509,1.31072 1.74764,2.91272 0.58254,1.60199 0.58254,3.34963 0,6.69925 -5.97108,9.17506 -1.45636,0.58255 -3.34962,0.72818 -1.74764,0 -13.25288,0 -3.20399,0 -5.53417,0 -2.18454,0 -3.78653,0 -1.45636,0 -2.47582,0.14564 -0.87381,0 -1.45636,0 -0.4369,0 -0.72818,0 -1.31072,0.43691 -2.0389,1.31072 -0.58254,0.87382 -4.22344,8.15562 -3.34963,6.69926 -6.99053,13.98106 -3.49527,7.2818 -3.93217,8.00998 -0.14564,0.29127 -0.29128,0.87381 -0.14563,0.58255 -0.29127,1.16509 -0.14563,0.58254 -0.14563,1.01945 -0.14564,0.72818 -0.14564,2.47581 0,1.602 0.14564,2.18454 0,0.58255 0.29127,1.74764 0.29127,1.01945 0.43691,1.45636 1.16508,2.33017 10.9227,21.99103 3.6409,7.13617 4.22344,8.00998 0.29127,0.29127 0.58254,0.58255 0.29128,0.14563 0.72818,0.4369 0.43691,0.29128 0.72818,0.29128 1.01946,0.14563 13.98106,0.14563 1.16509,0 3.34963,0 8.59252,0 10.19452,0.14564 1.60199,0.14563 2.91272,0.58254 h 0.14563 q 2.76709,1.16509 4.36908,3.78654 1.602,2.47581 1.602,5.38853 0,3.6409 -2.33018,6.40799 -2.18454,2.62144 -5.6798,3.34962 -0.72818,0.14564 -5.2429,0.14564 -4.51471,0.14564 -9.75761,0.14564 -5.09726,0 -9.61197,-0.14564 -4.51472,0 -5.38854,-0.14564 -5.53416,-0.58254 -10.19452,-3.49526 -4.66035,-3.05836 -7.57307,-7.71871 -0.14563,-0.29127 -0.72818,-1.45636 -0.58254,-1.16509 -1.60199,-2.91272 -0.87382,-1.89327 -2.03891,-4.07781 -1.16509,-2.33017 -2.47581,-4.80599 -1.16509,-2.47581 -2.47581,-4.95162 -1.16509,-2.62145 -2.33018,-4.80599 -1.16509,-2.33017 -2.0389,-4.22344 -0.87382,-1.89327 -1.45636,-3.05836 -0.58255,-1.31072 -0.72818,-1.60199 -1.01945,-2.18454 -1.74763,-4.51472 -0.58255,-2.47581 -0.87382,-4.95162 -0.43691,-4.07781 0,-8.00998 0.72818,-5.09726 2.62145,-9.61198 l 15.87432,-31.89428 q 6.11671,-9.61198 17.33069,-11.06834 z"
           id="path347"
           style="stroke:#ffffff;stroke-opacity:1;stroke-width:3.41333333;stroke-dasharray:none" />
      </g>
      <g
         id="g371"
         transform="translate(-83.576943)"
         style="stroke:#ffffff;stroke-opacity:1;stroke-width:3.41333333;stroke-dasharray:none">
        <path
           d="m 741.6708,345.11267 q 1.45636,-0.29127 12.9616,-0.29127 11.65088,0 12.5247,0.14564 1.74763,0.4369 3.20399,1.31072 1.45636,0.87382 2.47581,2.18454 1.16509,1.31072 1.74764,2.91272 0.58254,1.602 0.58254,3.34963 0,3.05835 -1.602,5.53417 -1.60199,2.47581 -4.36908,3.6409 -1.45636,0.58254 -3.20399,0.72818 -1.60199,0 -10.9227,0 -10.9227,0 -11.65088,0.14563 l -0.14563,0.14564 -0.29128,0.14563 q -0.14563,0 -0.29127,0.14564 0,0 -0.14563,0 0,0 -0.14564,0.14564 -0.14564,0.14563 -0.43691,0.4369 -0.14563,0.29128 -0.58254,0.72818 -0.29127,0.43691 -0.87382,1.16509 -0.58254,0.58255 -1.31072,1.602 -0.72818,0.87381 -1.74763,2.18454 -1.01946,1.16509 -2.33018,2.76708 -1.16509,1.602 -2.76708,3.78654 -3.6409,4.66035 -6.69926,8.59252 -3.05836,3.93217 -3.34963,4.36908 -1.16509,1.74763 -1.60199,4.07781 l -0.14564,0.58254 v 19.95214 q 0,18.93268 0,19.95213 0.72818,1.89327 2.18454,2.62145 0.29127,0.14563 0.43691,0.29127 h 0.14563 q 0.87382,0.14563 14.70924,0.14563 13.83542,0 14.70924,-0.14563 0.29127,-0.14564 0.4369,-0.29127 0.58255,-0.29128 1.01946,-0.72818 0.58254,-0.58255 0.87381,-1.16509 0.29127,-0.43691 0.29127,-0.43691 0.14564,-0.58254 0.14564,-7.86434 v -4.80599 h -4.22344 q -8.15562,0 -9.90325,-0.58255 -1.89327,-0.72818 -3.49527,-2.33017 -1.74763,-1.602 -2.33017,-3.6409 -1.16509,-3.20399 0,-6.55362 0.58254,-2.03891 2.33017,-3.6409 0.14564,-0.29127 0.43691,-0.43691 0.29127,-0.14564 0.43691,-0.29127 0.29127,-0.29127 0.43691,-0.43691 0.29127,-0.14564 0.58254,-0.29127 0.29127,-0.29127 0.43691,-0.43691 0.29127,-0.14564 0.58254,-0.14564 0.29128,-0.14563 0.58255,-0.29127 1.31072,-0.43691 2.91272,-0.43691 1.60199,-0.14563 9.61197,-0.14563 0.87382,0 1.31073,0 0.58254,0 1.45636,0 0.87381,0 1.60199,0 h 14.1267 2.91272 v 2.91272 14.70923 q 0,11.06834 0,13.10724 0,2.03891 -0.14564,3.204 -0.29127,2.0389 -0.87382,3.93217 -0.58254,1.89327 -1.45636,3.6409 -1.74763,3.6409 -4.66035,6.40798 -2.76708,2.76709 -6.40798,4.51472 -3.49527,1.74763 -7.42744,2.33017 -1.45636,0.14564 -16.31123,0.14564 -12.08779,0 -14.41796,-0.14564 -2.18454,0 -4.07781,-0.4369 -4.07781,-0.87382 -7.42744,-2.91272 -1.31072,-0.87382 -2.62145,-1.89327 -1.16508,-1.01945 -2.33017,-2.03891 -1.01945,-1.16508 -1.89327,-2.33017 -0.87382,-1.31073 -1.602,-2.62145 -0.72818,-1.45636 -1.31072,-2.76708 -0.58254,-1.45636 -1.01945,-2.91272 -0.29127,-1.602 -0.43691,-3.204 -0.29127,-1.89326 -0.29127,-21.40849 0,-19.51522 0.29127,-21.55413 0.29127,-3.93217 1.602,-7.42743 1.31072,-3.6409 3.34962,-6.84489 0.72818,-1.01946 10.77707,-13.83542 9.90325,-12.81597 10.9227,-13.83542 5.82544,-6.11672 14.12669,-7.13617 z"
           id="path355"
           style="stroke:#ffffff;stroke-opacity:1;stroke-width:3.41333333;stroke-dasharray:none" />
        <path
           d="m 840.26639,345.11267 c 1.35927,-0.38836 2.81563,-0.38836 4.36908,0 0.19419,0.0971 0.38837,0.19418 0.58255,0.29127 l 0.58254,0.29128 c 0.19418,0 0.38836,0.0485 0.58255,0.14563 2.0389,1.068 3.5438,2.57291 4.51471,4.51472 0.38837,0.67963 5.19436,16.84523 14.41797,48.49679 v 0.14563 0.14564 l 0.14563,0.14563 v 0.14564 0.14564 0.14563 l 0.14564,0.14564 v 0.14563 0.14564 l 0.14563,0.14564 v 0.14563 0.14564 0.14563 l 0.14564,0.14564 v 0.14564 0.14563 l 0.14564,0.14564 v 0.14563 0.14564 l 0.14563,0.14564 v 0.14563 0.14564 0.14563 l 0.14564,0.14564 v 0.14564 0.14563 l 0.14563,0.14564 v 0.14563 0.14564 0.14564 l 0.14564,0.14563 v 0.14564 l 12.5247,42.96262 c 0.19418,0.58254 0.24272,1.26217 0.14563,2.0389 v 0.87382 c 0,0.29127 -0.0485,0.58254 -0.14563,0.87381 0,0.29127 -0.0485,0.58255 -0.14564,0.87382 -0.67963,2.52436 -2.23308,4.46617 -4.66035,5.82544 -2.33018,1.45636 -4.80599,1.79618 -7.42744,1.01945 -1.55345,-0.38836 -2.91272,-1.11654 -4.07781,-2.18454 -1.16509,-1.06799 -1.99036,-2.33017 -2.47581,-3.78653 -0.19418,-0.48545 -1.21363,-3.78654 -3.05835,-9.90325 0,0 -0.0639,-5.64639 -2.03891,-7.13617 -3.52681,-2.66027 -13.25288,0 -13.25288,0 h -13.10724 l -2.0389,7.2818 c -1.84472,6.11671 -2.86417,9.46634 -3.05836,10.04889 -0.87381,1.94181 -2.13599,3.44672 -3.78653,4.51471 -0.19418,0.0971 -0.38836,0.19419 -0.58255,0.29128 -0.19418,0.0971 -0.38836,0.19418 -0.58254,0.29127 -0.19418,0.0971 -0.38836,0.19418 -0.58254,0.29127 -0.19419,0.0971 -0.38837,0.14564 -0.58255,0.14564 -0.19418,0.0971 -0.38836,0.19418 -0.58254,0.29127 -2.62145,0.67963 -5.09726,0.29127 -7.42744,-1.16509 -2.33017,-1.35927 -3.88362,-3.39817 -4.66035,-6.11671 -0.38836,-1.55345 -0.38836,-3.1069 0,-4.66035 0.19418,-0.77673 4.80599,-16.65105 13.83542,-47.62298 9.12652,-30.97192 13.78687,-46.70061 13.98106,-47.18606 0.19418,-0.48545 0.38836,-0.92236 0.58254,-1.31072 0.19418,-0.38837 0.43691,-0.77673 0.72818,-1.16509 0.29127,-0.38837 0.63109,-0.72818 1.01945,-1.01945 0.48545,-0.48545 0.97091,-0.92236 1.45636,-1.31073 0.58255,-0.38836 1.16509,-0.67963 1.74763,-0.87381 0.58255,-0.29127 1.21364,-0.48546 1.89327,-0.58255 z m 4.66036,54.6135 c -0.97091,-3.39817 -1.94182,-6.65071 -2.91273,-9.75761 -0.38836,1.55345 -0.82527,3.1069 -1.31072,4.66035 -0.48545,1.55345 -0.97091,3.25254 -1.45636,5.09726 l -4.51472,15.43742 h 1.74764 11.21397 1.74763 z"
           id="path357"
           sodipodi:nodetypes="ccsccccccccccccccccccccccccccccccccccccccsccccsccscccccsssccccscsssccccccscccccc"
           style="stroke:#ffffff;stroke-opacity:1;stroke-width:3.41333333;stroke-dasharray:none" />
        <path
           d="m 909.00661,398.41545 v -50.68133 -2.91272 h 2.91272 8.59252 8.73816 1.602 l 0.87381,1.31072 0.87382,1.31073 q 0.29127,0.29127 1.45636,2.0389 1.16509,1.602 2.91272,4.22345 1.89327,2.47581 3.78653,5.24289 1.45636,2.18454 2.91272,4.36908 1.602,2.03891 2.62145,3.49527 l 5.97108,-8.59253 8.44689,-12.08779 0.87381,-1.31072 h 1.602 8.73816 8.73816 2.91272 v 2.91272 50.9726 q 0,16.45687 0,35.09828 0,16.01996 -0.29127,17.33068 -1.45636,4.36908 -5.2429,6.26235 -3.78654,1.74763 -7.71871,0.43691 -1.74763,-0.72818 -3.34963,-2.18454 -2.0389,-1.89327 -2.91272,-4.66036 -0.29127,-1.31072 -0.29127,-14.41796 0,-15.00051 0,-28.25338 v -32.03992 l -1.45636,2.0389 -6.26235,8.8838 v 1.16508 q 0,1.16509 -0.14563,2.03891 0,0.72818 -0.14564,1.60199 -0.14563,0.87382 -0.43691,1.602 -0.14563,0.58254 -0.58254,1.31072 -1.16509,1.89327 -3.20399,3.204 -3.05836,2.0389 -6.55362,1.60199 -1.01945,-0.14563 -2.03891,-0.43691 -0.87381,-0.29127 -1.74763,-0.87381 -0.58254,-0.29127 -1.16509,-0.72818 -0.4369,-0.43691 -0.87381,-0.87382 -0.43691,-0.43691 -0.87382,-0.87381 -0.43691,-0.58255 -0.72818,-1.16509 -0.29127,-0.58255 -0.58254,-1.16509 -0.58255,-1.74763 -0.58255,-4.95162 l -0.14563,-1.45636 -6.11671,-8.8838 -1.31073,-1.89327 -0.14563,32.03992 q 0,41.50626 -0.14564,42.23444 0,0.29127 -0.14564,0.43691 -1.31072,4.36908 -5.24289,6.26235 -1.74763,0.87381 -3.78654,0.87381 -1.89327,0.14564 -3.78653,-0.4369 -2.03891,-0.72818 -3.6409,-2.33018 -1.602,-1.602 -2.33018,-3.6409 -0.58254,-1.16509 -0.72818,-3.6409 0,-2.62145 0,-16.74814 0.14564,-18.05886 0.14564,-33.05937 z"
           id="path359"
           style="stroke:#ffffff;stroke-opacity:1;stroke-width:3.41333333;stroke-dasharray:none" />
        <path
           d="m 1013.1364,401.61944 v -53.88532 -2.91272 h 2.9127 31.1661 q 7.4274,0 17.3307,0 13.8354,0 15.0005,0.14564 1.7476,0.4369 3.204,1.31072 1.4563,0.87382 2.4758,2.18454 1.1651,1.31072 1.7476,2.91272 0.5826,1.602 0.5826,3.34963 0,3.6409 -2.3302,6.40798 -2.1846,2.62145 -5.6798,3.34963 -0.8738,0.14564 -25.3407,0.14564 h -21.4085 v 13.54414 13.54415 h 8.01 q 11.7965,0 13.8354,1.01945 3.0584,1.45636 4.5147,4.51472 0.5826,1.01945 0.7282,2.18454 0.2913,1.01945 0.2913,2.18454 0,2.33018 -1.0195,4.36908 -1.4563,2.91272 -4.5147,4.51472 -2.0389,0.87381 -13.8354,1.01945 h -8.01 v 13.54415 13.54414 h 21.4085 q 24.4669,0 25.3407,0.14564 3.4952,0.72818 5.6798,3.49526 2.3302,2.76709 2.3302,6.40799 0,3.49526 -2.3302,6.26235 -2.1846,2.62144 -5.6798,3.34962 -0.8738,0.14564 -32.3312,0.14564 h -31.1661 -2.9127 v -2.91272 z"
           id="path361"
           style="stroke:#ffffff;stroke-opacity:1;stroke-width:3.41333333;stroke-dasharray:none" />
        <path
           d="m 1133.4317,344.96704 q 1.0195,-0.14564 19.5152,-0.14564 18.4958,0 19.8065,0.14564 7.5731,1.01945 12.9616,6.40798 5.2429,5.38853 5.9711,12.9616 0.2913,1.89327 0,3.49527 -0.2912,1.60199 -1.0194,3.20399 -0.7282,1.45636 -2.0389,2.62145 -2.7671,2.76708 -6.6993,2.62145 -1.4563,0 -2.6214,-0.29128 -0.8739,-0.29127 -1.7477,-0.58254 -0.7281,-0.43691 -1.4563,-0.87382 -0.7282,-0.58254 -1.3108,-1.31072 -2.4758,-2.47581 -2.767,-6.40798 0,-0.72818 -0.1457,-0.87382 v -0.14564 q -0.2912,-0.72818 -1.0194,-1.01945 l -0.2913,-0.14563 h -17.3307 -15.0005 q 6.5536,8.44688 24.1756,31.1661 4.5147,5.82544 6.8449,8.8838 2.4758,3.05835 6.1167,7.7187 3.6409,4.51472 5.5342,6.99053 1.8932,2.47581 3.9321,5.09726 2.0389,2.62145 2.9128,3.78654 0.8738,1.16509 1.0194,1.31072 1.1651,1.74763 1.8933,3.78654 0.7282,2.0389 1.0194,4.07781 1.1651,9.46634 -5.8254,16.01996 -3.6409,3.20399 -8.01,4.36908 0,0 -0.1456,0 -1.602,0.4369 -3.9322,0.4369 -2.3302,0.14564 -14.2723,0.14564 -0.8738,0 -1.3108,0 -0.2912,0 -1.0194,0 -0.7282,0 -1.3107,0 -2.0389,0 -5.6798,0 -12.6704,0 -13.9811,-0.14564 -7.5731,-1.01945 -12.816,-6.40798 -5.2429,-5.38853 -6.1167,-12.9616 -0.2912,-2.62145 0.2913,-4.80599 0.7282,-2.33018 2.3302,-4.07781 1.8932,-1.89327 4.5147,-2.76708 0.4369,0 0.8738,-0.14564 0.4369,-0.14564 0.8738,-0.14564 0.4369,0 0.8738,0 3.9322,0 6.8449,2.62145 0.7282,0.72818 1.1651,1.602 0.5826,0.72818 1.0195,1.60199 0.4369,0.87382 0.5825,1.89327 0.2913,0.87382 0.2913,1.89327 0.1456,0.58254 0.1456,0.87382 0.1457,0.29127 0.4369,0.72818 0.2913,0.29127 0.7282,0.4369 1.4564,0.58255 4.0778,0.72818 2.6215,0 4.9516,-0.14563 2.3302,-0.14564 4.9517,-0.29127 2.6214,-0.29128 3.4952,-0.29128 h 15.0005 q -6.5536,-8.44688 -24.1755,-31.02046 v -0.14564 l -0.1457,-0.14564 -0.1456,-0.14563 -0.1456,-0.14564 -0.1457,-0.14563 v -0.14564 l -0.1456,-0.14564 -0.1457,-0.14563 -0.1456,-0.14564 v -0.14563 l -0.1456,-0.14564 -0.1457,-0.14564 -0.1456,-0.14563 -0.1456,-0.14564 v -0.14563 l -0.1457,-0.14564 -0.1456,-0.14564 -0.1456,-0.14563 -0.1457,-0.14564 v -0.14563 l -0.1456,-0.14564 -0.1456,-0.14564 -0.1457,-0.14563 v -0.14564 l -0.1456,-0.14563 -0.1457,-0.29128 -0.1456,-0.14563 -0.1456,-0.14564 -23.1562,-29.70974 q -2.9127,-4.66035 -2.9127,-10.19452 0,-5.67981 3.0584,-10.34016 4.6603,-6.99053 13.1072,-8.15561 z"
           id="path363"
           style="stroke:#ffffff;stroke-opacity:1;stroke-width:3.41333333;stroke-dasharray:none" />
      </g>
    </g>
    <circle
       style="fill:#000000;fill-opacity:1;stroke:#484848;stroke-width:7.39172;stroke-linecap:round;stroke-linejoin:round;stroke-dasharray:none;stroke-opacity:1"
       id="path234"
       cx="256"
       cy="256"
       r="252.30414" />
    <g
       aria-label="&gt;CCG|"
       id="text6246"
       style="font-size:172.84px;font-family:OCRABold;-inkscape-font-specification:OCRABold;fill:#ffffff;stroke-width:6.75157;stroke-linecap:round;stroke-linejoin:round"
       transform="matrix(0.60827006,0,0,0.60827006,57.269183,100.33543)">
      <path
         d="m 39.925989,203.4474 q 0.681379,-0.17035 1.022069,-0.17035 0.511034,0 1.192413,0 2.555171,0 4.769652,1.02207 0.340689,0.17034 6.984134,4.08827 6.643444,3.74759 16.012403,9.19862 9.368959,5.45103 18.737918,11.07241 9.36896,5.45102 16.182742,9.5393 6.81379,3.91792 7.49516,4.42896 2.55518,1.5331 3.91793,4.08828 0.51104,0.85172 0.85173,1.87379 0.51104,0.85172 0.68138,1.87379 0.17034,1.02206 0.17034,3.23655 0.17035,2.21448 0,4.42896 0,2.21449 -0.17034,3.23655 -0.51104,2.21449 -1.53311,3.91793 -0.68137,1.19242 -1.70344,2.21448 -1.02207,1.02207 -2.21449,1.70345 l -65.412357,38.32756 q -1.192412,0.68138 -2.55517,0.85173 -1.192414,0.17034 -2.555171,0.17034 -2.214482,0 -4.258618,-0.85172 -1.873792,-0.85173 -3.406895,-2.55518 -1.533101,-1.36276 -2.21448,-2.89585 -1.362758,-2.55518 -1.192414,-5.62138 0,-0.85173 0.170345,-1.70345 0.170345,-0.85172 0.34069,-1.5331 0.340689,-1.19241 1.022068,-2.21448 0.681379,-1.19241 1.533102,-2.04414 0.851724,-1.02206 2.044136,-1.70345 0.851725,-0.51103 29.810326,-17.54551 14.990334,-8.85792 23.677915,-13.96826 -8.687581,-5.11034 -23.677915,-13.96826 -28.958601,-16.86413 -29.810326,-17.54551 -3.236548,-2.21448 -4.599306,-5.96207 -0.511035,-1.36275 -0.511035,-3.23654 -0.170344,-2.89587 1.192414,-5.62138 0.170344,-0.51103 0.511033,-1.02207 0.34069,-0.51103 0.681379,-0.85172 0.511035,-0.51104 1.022068,-1.02207 0.681379,-0.68138 1.192414,-1.19242 0.681379,-0.51103 1.533102,-0.85172 0.340689,-0.17035 0.681379,-0.34069 0.340689,-0.17035 0.681378,-0.34069 0.511035,-0.17034 0.851724,-0.34069 0.511034,-0.17034 0.851723,-0.17034 z"
         id="path8330"
         style="stroke-width:6.65409" />
      <path
         d="m 194.59902,189.81982 q 1.70344,-0.34069 14.64964,-0.34069 2.21448,0 3.4069,0 2.04413,0 4.08826,0 2.04414,0 3.4069,0 1.36276,0 2.72552,0 1.36276,0 2.21448,0 0.85172,0 1.5331,0 0.85172,0 1.36276,0 0.51103,0 0.85172,0.17034 0.51103,0 0.68138,0 0.34069,0 0.68138,0 2.04413,0.51104 3.74758,1.53311 1.70346,1.02206 2.89586,2.55516 1.36276,1.53311 2.04414,3.4069 0.68137,1.87379 0.68137,3.91793 0,7.83586 -6.98412,10.73172 -1.70345,0.68137 -3.91793,0.85172 -2.04414,0 -15.50137,0 -3.74759,0 -6.4731,0 -2.55517,0 -4.42896,0 -1.70345,0 -2.89586,0.17035 -1.02207,0 -1.70345,0 -0.51104,0 -0.85173,0 -1.5331,0.51103 -2.38482,1.53309 -0.68138,1.02207 -4.94,9.53931 -3.91793,7.83586 -8.17654,16.35309 -4.08828,8.51724 -4.59931,9.36896 -0.17034,0.3407 -0.34069,1.02207 -0.17035,0.68138 -0.34069,1.36276 -0.17035,0.68138 -0.17035,1.19242 -0.17034,0.85172 -0.17034,2.89586 0,1.87379 0.17034,2.55516 0,0.68139 0.34069,2.04414 0.3407,1.19241 0.51104,1.70345 1.36276,2.72551 12.77585,25.72206 4.25862,8.34689 4.94,9.36896 0.34069,0.34068 0.68138,0.68137 0.34069,0.17035 0.85172,0.51103 0.51104,0.34069 0.85172,0.34069 1.19242,0.17035 16.3531,0.17035 1.36276,0 3.91793,0 10.05034,0 11.92413,0.17035 1.87379,0.17034 3.40689,0.68137 h 0.17035 q 3.23654,1.36276 5.11033,4.42897 1.87379,2.89586 1.87379,6.30275 0,4.25862 -2.72551,7.49517 -2.55517,3.0662 -6.64344,3.91793 -0.85173,0.17034 -6.13241,0.17034 -5.28069,0.17034 -11.41309,0.17034 -5.96207,0 -11.24275,-0.17034 -5.28069,0 -6.30276,-0.17034 -6.4731,-0.68138 -11.92413,-4.08827 -5.45103,-3.57725 -8.85793,-9.02828 -0.17034,-0.34068 -0.85172,-1.70344 -0.68138,-1.36276 -1.87379,-3.4069 -1.02207,-2.21448 -2.38483,-4.76965 -1.36275,-2.72551 -2.89585,-5.62138 -1.36277,-2.89586 -2.89586,-5.79172 -1.36277,-3.0662 -2.72553,-5.62138 -1.36275,-2.72551 -2.38482,-4.93999 -1.02207,-2.21448 -1.70344,-3.57724 -0.68139,-1.5331 -0.85173,-1.87379 -1.19241,-2.55517 -2.04413,-5.28068 -0.68139,-2.89586 -1.02207,-5.79173 -0.51104,-4.76965 0,-9.36896 0.85172,-5.96206 3.0662,-11.24275 l 18.56757,-37.30549 q 7.15449,-11.24275 20.27103,-12.9462 z"
         id="path8332"
         style="stroke-width:6.65409" />
      <path
         d="m 316.39552,189.81982 q 1.70344,-0.34069 14.64964,-0.34069 2.21448,0 3.4069,0 2.04414,0 4.08827,0 2.04413,0 3.4069,0 1.36275,0 2.72551,0 1.36276,0 2.21448,0 0.85173,0 1.5331,0 0.85173,0 1.36276,0 0.51103,0 0.85173,0.17034 0.51103,0 0.68137,0 0.3407,0 0.68138,0 2.04414,0.51104 3.74758,1.53311 1.70346,1.02206 2.89586,2.55516 1.36277,1.53311 2.04414,3.4069 0.68138,1.87379 0.68138,3.91793 0,7.83586 -6.98413,10.73172 -1.70344,0.68137 -3.91793,0.85172 -2.04414,0 -15.50137,0 -3.74758,0 -6.4731,0 -2.55517,0 -4.42896,0 -1.70345,0 -2.89586,0.17035 -1.02207,0 -1.70345,0 -0.51103,0 -0.85173,0 -1.53309,0.51103 -2.38482,1.53309 -0.68137,1.02207 -4.94,9.53931 -3.91793,7.83586 -8.17654,16.35309 -4.08827,8.51724 -4.5993,9.36896 -0.17035,0.3407 -0.3407,1.02207 -0.17034,0.68138 -0.34069,1.36276 -0.17035,0.68138 -0.17035,1.19242 -0.17033,0.85172 -0.17033,2.89586 0,1.87379 0.17033,2.55516 0,0.68139 0.3407,2.04414 0.34069,1.19241 0.51104,1.70345 1.36275,2.72551 12.77584,25.72206 4.25863,8.34689 4.94,9.36896 0.3407,0.34068 0.68138,0.68137 0.34069,0.17035 0.85172,0.51103 0.51104,0.34069 0.85172,0.34069 1.19242,0.17035 16.3531,0.17035 1.36276,0 3.91793,0 10.05033,0 11.92413,0.17035 1.8738,0.17034 3.40689,0.68137 h 0.17035 q 3.23654,1.36276 5.11034,4.42897 1.87379,2.89586 1.87379,6.30275 0,4.25862 -2.72552,7.49517 -2.55516,3.0662 -6.64344,3.91793 -0.85172,0.17034 -6.1324,0.17034 -5.2807,0.17034 -11.4131,0.17034 -5.96207,0 -11.24275,-0.17034 -5.28069,0 -6.30276,-0.17034 -6.4731,-0.68138 -11.92413,-4.08827 -5.45104,-3.57725 -8.85793,-9.02828 -0.17034,-0.34068 -0.85172,-1.70344 -0.68137,-1.36276 -1.87379,-3.4069 -1.02207,-2.21448 -2.38483,-4.76965 -1.36275,-2.72551 -2.89586,-5.62138 -1.36275,-2.89586 -2.89586,-5.79172 -1.36275,-3.0662 -2.72552,-5.62138 -1.36275,-2.72551 -2.38482,-4.93999 -1.02207,-2.21448 -1.70344,-3.57724 -0.68139,-1.5331 -0.85172,-1.87379 -1.19242,-2.55517 -2.04414,-5.28068 -0.68139,-2.89586 -1.02207,-5.79173 -0.51104,-4.76965 0,-9.36896 0.85172,-5.96206 3.06621,-11.24275 l 18.56756,-37.30549 q 7.15448,-11.24275 20.27103,-12.9462 z"
         id="path8334"
         style="stroke-width:6.65409" />
      <path
         d="m 443.98373,189.81982 q 1.70345,-0.34069 15.16068,-0.34069 13.62757,0 14.64964,0.17034 2.04414,0.51104 3.74759,1.53311 1.70344,1.02206 2.89586,2.55516 1.36276,1.53311 2.04413,3.4069 0.68138,1.87379 0.68138,3.91793 0,3.57724 -1.87379,6.4731 -1.87379,2.89586 -5.11034,4.25862 -1.70345,0.68137 -3.74758,0.85172 -1.87379,0 -12.77586,0 -12.77586,0 -13.62758,0.17035 l -0.17034,0.17034 -0.34069,0.17035 q -0.17034,0 -0.34069,0.17034 0,0 -0.17035,0 0,0 -0.17033,0.17034 -0.17035,0.17035 -0.51104,0.51104 -0.17035,0.34068 -0.68138,0.85172 -0.34069,0.51103 -1.02207,1.36276 -0.68138,0.68138 -1.5331,1.87379 -0.85173,1.02207 -2.04414,2.55517 -1.19241,1.36276 -2.72551,3.23655 -1.36276,1.87379 -3.23655,4.42897 -4.25863,5.45103 -7.83586,10.05033 -3.57724,4.59932 -3.91793,5.11034 -1.36275,2.04414 -1.87379,4.76965 l -0.17035,0.68139 v 23.33722 q 0,22.14482 0,23.33723 0.85173,2.21448 2.55518,3.0662 0.34068,0.17035 0.51103,0.34069 h 0.17034 q 1.02207,0.17035 17.20482,0.17035 16.18275,0 17.20482,-0.17035 0.34069,-0.17034 0.51103,-0.34069 0.68138,-0.34068 1.19241,-0.85172 0.68138,-0.68138 1.02207,-1.36275 0.34069,-0.51104 0.34069,-0.51104 0.17034,-0.68138 0.17034,-9.19861 v -5.62139 h -4.93999 q -9.5393,0 -11.58344,-0.68137 -2.21448,-0.85172 -4.08828,-2.72551 -2.04413,-1.87379 -2.72551,-4.25862 -1.36276,-3.74758 0,-7.66552 0.68138,-2.38482 2.72551,-4.25861 0.17035,-0.34069 0.51104,-0.51104 0.34069,-0.17034 0.51103,-0.34069 0.3407,-0.34068 0.51104,-0.51103 0.34069,-0.17035 0.68138,-0.34069 0.34068,-0.34069 0.51103,-0.51103 0.34069,-0.17035 0.68138,-0.17035 0.34069,-0.17034 0.68138,-0.34069 1.5331,-0.51103 3.40689,-0.51103 1.87379,-0.17035 11.24275,-0.17035 1.02207,0 1.53311,0 0.68137,0 1.70344,0 1.02207,0 1.87379,0 h 16.52345 3.40689 v 3.4069 17.20482 q 0,12.94619 0,15.33102 0,2.38483 -0.17035,3.74758 -0.34068,2.38483 -1.02207,4.59931 -0.68138,2.21448 -1.70344,4.25862 -2.04414,4.25861 -5.45103,7.49516 -3.23656,3.23655 -7.49517,5.28069 -4.08828,2.04414 -8.68758,2.72552 -1.70345,0.17034 -19.07861,0.17034 -14.13861,0 -16.86412,-0.17034 -2.55518,0 -4.76966,-0.51104 -4.76965,-1.02207 -8.68758,-3.40689 -1.53311,-1.02207 -3.06621,-2.21448 -1.36275,-1.19241 -2.72551,-2.38483 -1.19241,-1.36276 -2.21448,-2.72552 -1.02207,-1.5331 -1.8738,-3.0662 -0.85172,-1.70345 -1.53309,-3.23655 -0.68138,-1.70345 -1.19242,-3.40689 -0.34069,-1.87379 -0.51103,-3.74758 -0.34069,-2.21449 -0.34069,-25.04068 0,-22.8262 0.34069,-25.21102 0.34068,-4.59931 1.87379,-8.68758 1.5331,-4.25862 3.91793,-8.0062 0.85172,-1.19241 12.6055,-16.18276 11.58345,-14.99033 12.77586,-16.18274 6.81379,-7.15448 16.52344,-8.34689 z"
         id="path8336"
         style="stroke-width:6.65409" />
      <rect
         style="display:inline;fill:#ffffff;fill-opacity:1;stroke:none;stroke-width:15.505;stroke-linecap:round;stroke-linejoin:round;stroke-dasharray:none;stroke-opacity:1"
         id="rect8494"
         width="122.05508"
         height="202.30447"
         x="500.66605"
         y="154.76134"
         ry="0.6093418" />
    </g>
  </g>
</svg>
